<svg id="Layer_1" data-name="Layer 1" xmlns="http://www.w3.org/2000/svg" viewBox="0 0 512 512"><defs><style>.cls-1{fill:#141f38;}</style></defs><title>document-upload-glyph</title><path class="cls-1" d="M422.4,358.4a76.8,76.8,0,1,0,76.8,76.8A76.89,76.89,0,0,0,422.4,358.4Zm34.65,85.85a12.8,12.8,0,0,1-18.1,0l-3.75-3.75v20.3a12.8,12.8,0,1,1-25.6,0V440.5l-3.75,3.75a12.8,12.8,0,0,1-18.1-18.1l25.6-25.6c.28-.28.57-.54.87-.78l.28-.22q.33-.26.67-.49l.3-.2c.31-.2.63-.39,1-.56l.19-.09q.41-.21.84-.39l.33-.13.8-.28.27-.08c.37-.11.74-.2,1.11-.27h0c.37-.07.74-.12,1.12-.16l.23,0q.48,0,1,0h.2a12.77,12.77,0,0,1,2.26.21l.33.07.75.18.41.12.71.25.36.13h0c.32.13.64.28.95.44l.35.19.66.39.33.21q.41.28.79.58l.13.1c.31.25.6.52.88.8l.07.06,25.6,25.6A12.8,12.8,0,0,1,457.05,444.25ZM320,435.2A102.4,102.4,0,0,1,422.4,332.8V153.6L268.94,0H76.8a64,64,0,0,0-64,64V448a64,64,0,0,0,64,64h278A102.05,102.05,0,0,1,320,435.2ZM256,25.6,396.8,166.4H320a64,64,0,0,1-64-64ZM128,243.2H230.4a12.8,12.8,0,1,1,0,25.6H128a12.8,12.8,0,1,1,0-25.6Zm0,51.2H307.2a12.8,12.8,0,0,1,0,25.6H128a12.8,12.8,0,0,1,0-25.6Zm178.82,76.8H128a12.8,12.8,0,1,1,0-25.6H306.82a12.8,12.8,0,1,1,0,25.6Z"/></svg>